<svg width="512" height="512" viewBox="0 0 512 512" fill="none" xmlns="http://www.w3.org/2000/svg">
<path d="M258.625 434.542C258.625 434.704 254.533 436.017 253.884 435.999C253.234 435.981 251.935 435.778 250.393 434.901C240.338 429.18 229.288 415.489 214.118 399.141C208.02 392.569 203.444 379.652 199.538 366.843C197.579 360.417 198.033 352.854 198.073 346.741C198.098 342.976 199.053 340.306 200.075 337.602C201.055 335.01 202.941 332.096 205.719 328.553C207.222 326.637 209.309 324.807 211.085 323.457C217.063 318.911 223.88 317.348 228.626 315.194C232.802 313.298 240.498 313.598 249.244 313.883C252.546 313.99 255.632 314.783 258.593 315.945M258.593 315.945C261.001 316.891 263.327 318.081 265.617 319.345M258.593 315.945C259.049 315.607 259.609 315.377 260.237 315.282C261.788 315.047 263.758 315.494 265.883 316.655C269.183 318.456 272.777 320.444 275.667 322.991M258.593 315.945C257.922 316.442 257.476 317.173 257.369 318.054C257.19 319.534 258.002 321.404 259.557 323.364C260.985 325.164 262.807 326.813 264.86 328.35M265.617 319.345C267.871 320.589 270.091 321.905 272.323 323.131C273.928 324.012 275.011 324.876 276.063 325.741C277.115 326.607 278.049 327.542 277.779 328.247C277.577 328.775 276.687 329.158 275.384 329.482M265.617 319.345C269.484 320.556 272.968 321.815 275.667 322.991M265.617 319.345C264.07 318.861 262.462 318.384 260.819 317.923C258.14 317.172 258.019 318.829 258.749 320.19C260.436 323.334 264.639 325.781 268.933 328.262C269.214 328.424 269.498 328.579 269.782 328.727M275.384 329.482C274.944 329.591 274.458 329.694 273.935 329.793C273.519 329.872 273.103 329.947 272.688 330.02M275.384 329.482C277.062 329.775 278.728 330.135 280.355 330.58M275.384 329.482C273.519 329.156 271.639 328.912 269.782 328.727M272.688 330.02C271.223 330.277 269.755 330.499 268.288 330.702M272.688 330.02C271.718 329.65 270.743 329.227 269.782 328.727M272.688 330.02C273.608 330.372 274.522 330.678 275.412 330.958C276.733 331.376 277.993 331.691 278.911 331.658M268.288 330.702C264.906 331.169 261.528 331.531 258.204 331.968M268.288 330.702C267.097 329.945 265.946 329.163 264.86 328.35M268.288 330.702C270.237 331.938 272.294 333.107 274.356 334.233C277.078 335.719 279.697 336.536 281.725 337.018C283.753 337.499 285.173 337.499 285.438 337.052C285.704 336.605 284.77 335.71 283.355 334.619C282.343 333.839 281.099 332.971 278.911 331.658M258.204 331.968C257.844 332.015 257.485 332.064 257.127 332.113M258.204 331.968C257.652 331.925 257.108 331.892 256.572 331.87M258.204 331.968C259.563 332.074 260.977 332.238 262.467 332.441C275.047 334.152 281.678 337.329 288.561 339.67C288.904 339.787 289.246 339.81 289.573 339.763M257.127 332.113C255.624 332.32 254.133 332.546 252.659 332.808M257.127 332.113C256.939 332.031 256.754 331.95 256.572 331.87M257.127 332.113C265.45 335.733 278.954 340.456 283.638 341.398C285.283 341.729 286.691 341.484 288.133 340.751C288.63 340.499 289.13 340.164 289.573 339.763M252.659 332.808C249.919 333.296 247.237 333.91 244.642 334.756C244.606 334.768 244.569 334.78 244.533 334.792M252.659 332.808C252.142 332.577 251.543 332.347 250.928 332.137M252.659 332.808C253.542 333.204 254.184 333.603 254.253 333.915C254.392 334.54 252.159 334.784 249.609 334.91C247.59 335.009 245.414 335.03 244.533 334.792M244.533 334.792C241.399 335.852 238.395 338.51 234.594 342.193C230.531 346.13 228.178 350.135 226.439 352.879C224.977 355.186 223.697 357.866 222.584 360.713M244.533 334.792C244.301 334.73 244.159 334.649 244.134 334.547C244.01 334.06 246.648 333.084 248.982 332.52C249.63 332.363 250.277 332.237 250.928 332.137M222.584 360.713C220.159 366.911 218.524 373.898 217.514 379.55M222.584 360.713C222.669 365.285 223.178 370.718 224.468 376.795C227.029 388.858 230.62 401.877 237.17 409.37C238.454 410.839 240.159 412.547 242.245 414.134C244.331 415.721 246.726 417.144 249.115 417.855C249.833 418.069 250.543 418.218 251.221 418.343M222.584 360.713C222.44 353.032 223.491 347.778 224.041 345.981C224.904 343.165 226.888 340.674 229.217 338.155C231.805 335.355 235.653 333.362 239.315 331.679C241.007 330.901 242.611 330.891 244.238 330.909C245.865 330.926 247.529 331.13 249.604 331.722C250.038 331.846 250.487 331.987 250.928 332.137M217.514 379.55C217.264 380.946 217.052 382.26 216.876 383.461C216.541 385.753 216.608 388.21 216.566 388.429C215.439 394.359 215.164 383.306 215.569 371.356M217.514 379.55C216.872 376.874 216.214 374.097 215.569 371.356M217.514 379.55C219.517 387.904 221.365 395.279 222.198 397.518C222.733 398.958 222.995 400.508 224.28 402.136C229.812 409.15 236.375 414.008 242.049 419.331C244.367 421.506 246.733 423.157 248.757 424.756C248.806 424.795 248.855 424.833 248.905 424.869M215.569 371.356C215.836 363.471 216.399 355.196 217.209 351.151C217.729 348.555 219.612 346.456 221.278 344.43C224.56 340.436 229.616 337.066 232.968 334.253C233.83 333.53 231.408 333.027 229.632 333.309C227.856 333.59 226.395 334.363 224.85 335.472C223.306 336.581 221.723 338.004 220.197 339.896C218.671 341.788 217.25 344.105 216.133 346.987C214.444 351.342 213.777 357.187 213.572 362.84M215.569 371.356C214.877 368.42 214.2 365.526 213.572 362.84M213.572 362.84C213.49 365.094 213.481 367.318 213.51 369.404C213.592 375.355 210.827 352.546 210.662 351.689C209.277 344.48 211.021 351.938 213.572 362.84ZM248.905 424.869C249.049 424.974 249.197 425.071 249.347 425.159M248.905 424.869C248.725 423.888 248.761 422.902 248.985 421.932C249.251 420.779 249.77 419.672 250.575 419.088M248.905 424.869C249.003 425.402 249.165 425.934 249.394 426.461M249.347 425.159C249.7 425.365 250.068 425.521 250.432 425.618M249.347 425.159C249.348 423.036 249.678 420.52 250.551 419.126C250.559 419.113 250.567 419.101 250.575 419.088M249.347 425.159C249.347 425.209 249.347 425.259 249.348 425.308C249.351 425.71 249.366 426.094 249.394 426.461M250.432 425.618C250.99 425.768 251.536 425.777 251.996 425.611C252.928 425.272 253.537 424.094 253.181 423.771C252.825 423.448 251.485 424.017 250.775 425.001C250.636 425.193 250.524 425.399 250.432 425.618ZM250.432 425.618C250.176 426.228 250.081 426.932 250.052 427.672M250.052 427.672C250.037 428.033 250.038 428.401 250.043 428.771C250.047 429.027 250.053 429.283 250.063 429.536M250.052 427.672C249.828 427.335 249.629 426.976 249.462 426.613C249.438 426.562 249.416 426.512 249.394 426.461M250.052 427.672C250.781 428.772 251.768 429.645 252.73 429.708C253.988 429.792 255.165 428.45 255.833 427.068C256.5 425.685 256.292 426.477 256.253 425.053C256.24 424.584 257.657 426.905 257.577 426.461M250.063 429.536C250.111 430.672 250.259 431.772 250.775 432.737C251.405 433.916 252.582 434.852 253.513 434.805C254.444 434.758 255.094 433.701 255.591 432.099C255.643 431.931 255.693 431.762 255.741 431.593M250.063 429.536C249.697 428.611 249.482 427.613 249.394 426.461M250.063 429.536C250.207 429.899 250.374 430.251 250.566 430.597C251.404 432.105 252.703 433.447 253.9 433.223C254.579 433.096 255.213 432.452 255.741 431.593M255.741 431.593C256.143 430.94 256.483 430.162 256.736 429.394C257.32 427.618 256.857 427.107 256.736 425.618M253.181 419.7C252.272 419.257 252.068 417.631 251.221 418.343M251.221 418.343C250.987 418.539 250.769 418.787 250.575 419.088M251.221 418.343C252.799 418.633 252.529 419.796 253.412 420.309C254.258 420.8 257.414 425.557 257.577 426.461M250.575 419.088C250.85 418.889 251.158 418.751 251.501 418.692C252.848 418.463 252.8 419.172 253.881 420.309C254.164 420.607 257.388 426.144 257.577 426.461M250.928 332.137C252.762 331.856 254.619 331.789 256.572 331.87M256.572 331.87C250.964 329.394 248.003 327.502 252.363 327.825C255.606 328.066 260.022 328.076 264.86 328.35M289.573 339.763C290.648 339.611 291.564 338.708 291.814 337.904C292.033 337.196 291.753 336.392 290.84 335.513M289.573 339.763C290.414 339.003 291.05 338.006 291.078 336.887C291.089 336.442 291.001 335.98 290.84 335.513M290.84 335.513C290.399 335.089 289.812 334.649 289.063 334.193C286.433 332.594 283.466 331.432 280.355 330.58M290.84 335.513C290.381 334.188 289.335 332.822 288.298 331.672C285.744 328.84 282.635 326.873 279.425 324.886C278.473 324.296 277.196 323.657 275.667 322.991M280.355 330.58C280.322 330.819 280.246 331.023 280.122 331.181C279.877 331.497 279.454 331.638 278.911 331.658M280.355 330.58C280.496 329.546 279.823 327.848 278.66 326.236C277.808 325.055 276.791 323.981 275.667 322.991M269.782 328.727C268.113 328.561 266.464 328.441 264.86 328.35M278.911 331.658C278.042 331.137 277.024 330.545 275.813 329.861M207.053 215.898C206.891 215.817 205.711 214.759 204.355 213.95C204.069 213.78 204.704 215.622 213.907 228.838C223.11 242.053 240.889 266.976 251.388 281.99C251.665 282.386 251.938 282.778 252.209 283.168M252.209 283.168C256.208 288.926 259.535 294.005 262.379 298.567M252.209 283.168C248.567 278.199 246.054 274.823 245.842 274.665C245.419 274.349 253.928 286.513 262.379 298.567M252.209 283.168C257.229 290.017 264.393 299.893 270.63 308.544M262.379 298.567C268.672 308.663 272.598 316.228 276.208 323.02C277.836 326.083 278.027 324.551 277.459 322.456C277.074 321.036 276.33 319.19 275.153 316.803M262.379 298.567C266.228 304.058 270.066 309.527 273.042 313.782C273.8 314.866 274.502 315.871 275.153 316.803M275.153 316.803C274.048 314.56 272.56 311.838 270.63 308.544M275.153 316.803C282.671 327.57 283.337 328.625 283.314 328.562C282.965 327.583 282.657 326.351 282.093 324.669M270.63 308.544C267.475 303.158 263.137 296.24 257.35 287.376C248.876 274.396 234.759 257.036 227.368 247.335C219.139 236.536 217.803 233.818 217.447 232.739C217.297 232.283 219.162 235.239 228.884 248.16C238.606 261.08 256.629 284.702 266.624 298.192C277.294 312.593 280.596 320.21 282.093 324.669M270.63 308.544C273.032 311.874 275.295 315.023 277.246 317.747C279.068 320.29 280.673 322.589 282.093 324.669M282.093 324.669C291.188 337.995 292.652 342.339 294.473 344.505C295.446 345.663 297.024 345.788 298.547 345.976C300.069 346.164 301.693 346.205 302.469 345.372C303.244 344.539 303.122 342.832 301.111 339.004C290.607 319.015 278.123 308.113 269.112 296.005C258.284 281.456 250.946 266.456 245.962 257.059C244.088 253.525 242.316 250.325 240.646 247.424M240.646 247.424C235.421 238.346 231.2 232.192 227.999 227.89M240.646 247.424C240.53 247.604 240.413 247.781 240.294 247.957C239.551 249.06 238.749 247.995 237.832 246.867C235.95 244.552 230.377 242.091 229.804 235.841C229.573 233.317 228.661 230.601 227.999 227.89M240.646 247.424C246.834 237.848 249.333 223.335 255.924 213.362C257.186 211.451 259.71 209.313 262.746 207.113M227.999 227.89C226.21 225.485 224.74 223.659 223.592 222.223C222.455 220.801 221.467 218.892 220.314 217.665C218.299 215.521 215.553 215.079 214.296 213.836C212.452 212.011 222.486 204.443 235.597 194.48M227.999 227.89C227.267 224.894 226.839 221.904 227.97 219.187C228.915 216.915 231.172 214.04 234.384 210.803C237.492 207.67 241.545 206.264 244.925 203.489C246.776 201.969 248.547 199.627 252.514 192.025C254.014 189.151 255.46 186.367 256.833 183.695M235.597 194.48C238.275 192.445 241.081 190.31 243.941 188.104C256.404 178.489 261.127 173.556 262.203 173.009M235.597 194.48C229.449 200.517 225.509 204.697 230.397 201.397C234.554 198.59 247.836 190.524 256.833 183.695M235.597 194.48C243.85 186.375 256.084 174.923 256.293 173.72C257.144 168.82 255.311 168.321 252.038 170.356M262.203 173.009C262.271 172.974 262.325 172.957 262.365 172.958C268.98 173.037 264.437 177.924 256.833 183.695M262.203 173.009C267.229 162.683 270.185 155.282 269.222 152.872C268.779 151.764 267.675 152.401 265.818 153.598C261.395 156.449 257.249 159.077 253.504 162.966C240.956 175.995 234.424 183.188 229.065 187.334C221.069 193.52 197.455 213.136 205.845 210.442C206.539 210.219 209.502 207.576 211.737 206.255C213.971 204.933 215.5 205.117 216.811 204.535C218.293 203.878 220.341 202.672 223.184 200.209M262.203 173.009C260.603 176.297 258.793 179.881 256.833 183.695M252.038 170.356C249.936 171.662 247.241 174.013 244.281 176.914M252.038 170.356C241.051 183.992 229.327 198.04 220.247 205.098C218.212 206.68 216.396 207.676 218.185 205.834C219.231 204.758 220.985 202.751 223.184 200.209M252.038 170.356C253.098 169.04 254.151 167.728 255.194 166.427C258.926 161.771 257.552 162.534 256.173 163.747C254.334 165.363 250.203 170.066 244.281 176.914M244.281 176.914C237.275 183.781 228.786 193.731 223.184 200.209M244.281 176.914C240.629 181.137 236.294 186.177 231.396 191.812C228.103 195.601 225.401 198.288 223.184 200.209M262.746 207.113C265.253 205.296 268.11 203.437 270.895 201.629C272.31 200.71 271.045 203.731 269.44 206.128C266.327 210.778 258.122 221.722 249.219 233.749C243.856 240.994 253.489 222.896 262.746 207.113ZM262.746 207.113C267.906 198.314 272.949 190.235 275.212 187.668C279.254 183.083 287.006 178.439 292.71 172.735C294.679 170.765 293.462 169.552 292.19 168.745C290.918 167.938 289.294 167.287 287.504 167.013C285.713 166.739 283.806 166.861 282.255 167.615C281.349 168.055 280.416 168.65 279.462 169.375M279.462 169.375C268.902 177.396 255.756 201.391 249.06 208.954C240.134 219.037 275.151 184.787 281.169 174.638C282.31 172.715 282.084 170.961 281.375 170.124C280.962 169.636 280.265 169.419 279.462 169.375ZM279.462 169.375C278.887 169.343 278.258 169.4 277.639 169.51C275.243 169.936 272.589 171.299 269.909 173.135M269.909 173.135C264.864 176.592 259.729 181.726 256.055 185.436C255.758 185.736 258.75 184.546 261.485 182.231C264.642 179.559 267.44 176.377 269.909 173.135ZM269.909 173.135C272.315 169.976 274.408 166.761 276.218 163.907C277.732 161.338 278.544 159.508 278.069 159.155C277.594 158.802 275.808 159.982 273.353 161.443M236.82 174.749C236.82 174.993 236.78 176.379 237.287 178.573C237.53 179.628 238.971 180.076 240.287 179.617C243.498 178.497 246.275 173.624 249.568 168.524C252.876 163.403 254.934 158.018 256.368 153.549C258.6 146.595 255.194 140.097 254.133 132.101C253.029 123.779 251.507 112.514 246.887 104.455C244.162 99.7032 241.936 97.4728 239.648 95.3192C238.515 94.2531 236.892 92.3359 235.651 91.5357C234.411 90.7355 233.477 89.6377 232.935 88.3201C232.394 87.0024 232.272 85.4982 232.656 83.9507C233.039 82.4033 233.932 80.8584 234.879 79.5136C235.827 78.1688 236.801 77.0711 237.932 76.4649C239.063 75.8588 240.321 75.7775 241.639 76.63C244.785 78.6652 250.101 89.7745 257.962 104.664C265.313 118.588 273.81 129.909 279.94 139.983M279.94 139.983C282.517 144.218 284.676 148.233 286.156 152.128C286.425 152.838 285.289 151.207 283.134 147.935M279.94 139.983C281.131 142.877 282.205 145.561 283.134 147.935M279.94 139.983C278.766 137.13 277.478 134.073 276.102 130.907C270.458 117.916 297.533 167.773 300.26 174.622C300.881 176.181 301.388 177.474 301.456 178.835C301.524 180.197 301.159 181.579 300.382 182.921C296.955 188.843 277.444 199.705 265.48 207.914C264.046 208.898 263.003 210.248 262.031 211.384C261.06 212.52 260.329 213.577 261.069 213.776C261.809 213.975 264.041 213.284 266.551 212.013C271.975 209.267 280.59 202.027 288.739 195.67C297.074 189.167 265.76 223.157 254.405 237.769C250.226 243.146 249.95 244.9 249.963 248.157C249.974 250.668 250.125 253.03 250.365 255.19M283.134 147.935C281.056 144.782 278.032 140.106 274.405 134.532M283.134 147.935C285.878 154.947 287.36 159.25 286.875 158.264C283.605 151.618 280.079 143.59 274.405 134.532M274.405 134.532C273.571 133.251 272.705 131.922 271.812 130.554M274.405 134.532C273.587 133.227 272.724 131.901 271.812 130.554M271.812 130.554C267.132 123.384 261.692 115.12 256.095 106.856C250.898 99.1816 251.364 100.756 252.347 103.055C252.844 104.217 253.441 105.569 254.638 107.871M271.812 130.554C270.519 128.647 269.126 126.699 267.616 124.714C262.875 118.479 258.487 112.822 254.638 107.871M254.638 107.871C255.811 110.126 257.56 113.294 260.353 118.086C275.555 144.17 284.967 159.606 282.759 157.129C280.212 154.273 269.636 136.227 254.737 109.981C253.185 107.248 251.833 104.848 250.648 102.736M254.638 107.871C253.233 106.063 251.9 104.349 250.648 102.736M250.648 102.736C244.346 91.5052 242.782 88.4119 241.303 86.7548C240.445 85.7931 239.14 85.4365 238.859 85.7951C238.234 86.59 242.884 92.7335 250.648 102.736ZM250.365 255.19C250.491 256.322 250.642 257.398 250.81 258.412M250.365 255.19C247.346 251.046 245.846 249.084 246.271 249.897C247.181 251.636 248.652 254.503 250.81 258.412M250.81 258.412C251.358 261.71 252.091 264.34 252.76 266.038C254.101 269.444 262.782 280.28 270.768 291.094M250.81 258.412C253.096 262.551 256.154 267.859 260.134 274.235C264.079 280.556 267.637 286.187 270.768 291.094M270.768 291.094C270.812 291.153 270.841 291.199 270.854 291.227M270.768 291.094C270.796 291.137 270.826 291.184 270.854 291.227M270.854 291.227C271.109 291.81 264.875 285.929 263.253 284.264C257.199 278.046 272.832 295.971 281.832 308.162M270.854 291.227C275.521 298.54 279.229 304.23 281.832 308.162M281.832 308.162C283.472 310.384 288.545 319.233 289.573 320.894C290.54 322.456 285.399 313.552 281.832 308.162ZM304.297 343.417C303.582 344.392 302.446 345.002 301.191 345.052C290.987 345.458 278.667 333.158 272.925 331.447C256.542 326.566 229.091 331.496 225.428 333.357C223.662 334.255 222.359 335.753 221.145 337.148L221.054 337.252C219.815 338.676 218.8 340.099 217.973 342.052C213.653 352.25 214.229 362.369 214.127 365.749C214.028 369.006 216.623 376.333 221.896 387.335C233.314 404.743 246.368 417.746 254.658 426.942C255.875 428.332 256.971 429.226 259.945 432.489M243.094 212.449C243.134 212.408 243.175 212.367 243.622 211.858C244.07 211.349 244.919 210.383 243.717 214.201C242.512 218.028 239.224 226.688 240.351 225.336C240.444 225.225 240.566 225.045 240.714 224.808M240.714 224.808C242.369 222.146 247.173 212.229 247.754 210.817C249.949 205.488 244.56 216.547 240.714 224.808ZM240.714 224.808C238.994 228.501 237.583 231.635 237.297 232.494C242.568 223.477 250.259 209.221 251.187 208.18C251.101 208.765 249.884 211.611 246.538 217.623M260.819 273.233C259.764 273.802 261.46 256.351 260.997 256.628C259.137 257.739 263.241 251.813 272.176 242.433M272.176 242.433C272.911 241.661 273.666 240.866 274.439 240.051M272.176 242.433C282.598 229.035 292.794 215.692 299.066 211.014C299.194 210.918 299.325 210.824 299.453 210.734M272.176 242.433C271.832 242.874 271.488 243.316 271.144 243.757C270.993 243.952 272.199 242.607 274.439 240.051M274.439 240.051C281.143 232.985 289.149 224.4 296.682 215.713C302.21 209.339 300.96 209.688 299.453 210.734M274.439 240.051C279.175 234.65 288.531 223.841 299.453 210.734M299.453 210.734C301.54 208.23 303.685 205.641 305.865 202.991C312.066 195.477 311.295 196.494 310.37 197.424C309.445 198.354 308.389 199.167 306.195 200.005M248.629 420.168C248.832 420.25 249.035 420.331 249.322 419.641C249.51 419.19 249.731 418.408 249.875 417.471M249.875 417.471C249.95 416.975 250.005 416.436 250.021 415.88C250.138 411.794 247.413 404.885 244.227 397.63M249.875 417.471C248.45 413.744 247.072 410.086 245.843 405.848C245.233 403.446 244.681 400.69 244.227 397.63M249.875 417.471C249.951 417.672 250.028 417.873 250.105 418.074M244.227 397.63C243.81 396.679 243.384 395.722 242.956 394.764M244.227 397.63C243.724 394.236 243.341 390.466 243.133 386.388M242.956 394.764C241.825 392.235 240.677 389.703 239.61 387.271M242.956 394.764C242.717 396.555 242.037 398.387 241.814 397.918C240.92 396.032 240.007 392.073 239.61 387.271M242.956 394.764C242.977 394.61 242.994 394.456 243.008 394.304C243.213 391.981 243.124 389.356 243.133 386.388M239.61 387.271C238.715 385.232 237.877 383.263 237.155 381.426C235.852 378.111 236.451 373.988 236.736 369.81C237.025 365.555 238.985 361.625 240.662 358.019C242.231 354.644 244.314 352.048 246.521 349.999C254.787 342.321 271.163 341.65 274.232 341.341C275.212 341.242 276.092 341.38 276.355 341.549M239.61 387.271C239.517 386.141 239.452 384.965 239.423 383.758C239.281 377.881 238.988 372.142 241.1 367.11C243.353 361.743 246.119 355.709 251.125 351.699L251.145 351.683M276.355 341.549C276.478 341.628 276.466 341.715 276.264 341.787C273.275 342.864 268.778 342.875 265.017 343.938C260.723 345.153 255.966 347.823 251.145 351.683M276.355 341.549C278.459 341.583 280.508 341.839 282.455 342.56C283.914 343.1 285.289 344.345 284.132 344.552C272.105 346.705 260.25 347.406 257.75 349.86C254.847 352.711 251.691 356.74 249.307 362.059C246.772 367.714 243.926 373.882 243.376 380.232C243.185 382.434 243.139 384.482 243.133 386.388M276.355 341.549C275.146 341.53 273.919 341.584 272.682 341.665C268.355 341.951 262.888 344.179 256.854 347.371C254.751 348.484 252.86 349.96 251.145 351.683M251.145 351.683C250.365 352.466 249.622 353.3 248.911 354.175C246.637 356.973 244.892 360.307 243.77 364.159C242.925 372.206 242.794 379.712 243.133 386.388M258.625 427.425L260.437 431.715C260.437 432.8 260.437 434.467 258.854 431.748C253.341 422.279 250.356 411.98 249.598 406.718C247.965 395.384 245.378 383.348 246.521 375.237C246.903 372.52 247.831 366.309 248.911 360.713C249.408 358.142 255.496 355.666 256.854 354.175C258.211 352.683 260.12 352.059 262.538 351.128C274.019 346.705 287.993 346.412 297.436 345.572C299.088 345.425 300.468 345.466 301.727 345.812C302.986 346.158 304.082 346.808 305.334 347.479M209.267 207.151C211.18 205.117 220.072 195.789 232.045 186.462C244.284 176.929 250.341 154.075 252.839 147.224C253.861 144.882 255.404 141.873 256.422 139.734C257.44 137.594 257.886 136.415 258.223 137.541M224.93 183.695C224.118 184.996 213.752 199.893 212.902 200.783C207.732 206.193 240.181 164.212 249.497 148.415C254.721 139.555 254.855 125.431 255.599 106.913C255.754 103.056 254.671 101.717 253.787 100.497C252.903 99.2771 251.888 98.22 251.142 96.9233C250.396 95.6266 249.95 94.1223 250.308 94.3435C252.601 95.7577 254.721 100.846 261.14 108.401C273.145 122.534 284.964 136.131 291.163 146.134C294.566 151.626 297.392 156.131 299.747 160.021M299.747 160.021C303.382 166.025 305.894 170.563 307.67 175.002C309.069 178.499 309.907 181.707 307.831 178.747C291.782 155.862 288.702 147.704 285.96 144.342C285.445 143.709 284.973 143.182 284.779 142.969M299.747 160.021C296.095 155.157 291.169 149.613 286.065 144.319C285.341 143.567 284.944 143.146 284.779 142.969M299.747 160.021C301.664 162.573 303.23 164.939 304.286 166.983C310.764 179.512 311.018 188.623 313.185 194.48M284.779 142.969C284.663 142.842 284.647 142.827 284.779 142.969ZM281.348 229.451C281.348 230.02 281.348 230.589 281.044 231.431C280.315 233.447 278.448 235.722 276.686 238.322" stroke="black" stroke-width="18.9775" stroke-linecap="round" stroke-linejoin="round"/>
</svg>
