<svg width="18" height="95" viewBox="0 0 18 95" fill="none" xmlns="http://www.w3.org/2000/svg">
<path d="M2.47906 12.322L8.625 17.5224L14.7709 12.322C14.9955 12.132 15.125 11.8528 15.125 11.5586V4.125C15.125 3.02043 14.2296 2.125 13.125 2.125H4.125C3.02043 2.125 2.125 3.02043 2.125 4.125V11.5586C2.125 11.8528 2.25451 12.132 2.47906 12.322Z" fill="#232323"/>
<path d="M8.625 92.1699V17.5224M8.625 17.5224L2.47906 12.322C2.25451 12.132 2.125 11.8528 2.125 11.5586V4.125C2.125 3.02043 3.02043 2.125 4.125 2.125H13.125C14.2296 2.125 15.125 3.02043 15.125 4.125V11.5586C15.125 11.8528 14.9955 12.132 14.7709 12.322L8.625 17.5224Z" stroke="#232323" stroke-width="4.25" stroke-linecap="round" stroke-linejoin="round"/>
</svg>
